<?xml version="1.0" encoding="UTF-8" standalone="no"?>
<!-- Created with Inkscape (http://www.inkscape.org/) -->

<svg
   version="1.1"
   id="svg1"
   width="499.7634"
   height="430.89355"
   viewBox="0 0 499.7634 430.89356"
   xmlns="http://www.w3.org/2000/svg"
   xmlns:svg="http://www.w3.org/2000/svg">
  <defs
     id="defs1">
    <rect
       x="-80.248161"
       y="-290.8996"
       width="94.04081"
       height="58.932243"
       id="rect15" />
  </defs>
  <g
     id="g1"
     transform="translate(-27.055526,575.54772)">
    <path
       style="fill:#000000"
       d="m 271.63533,-145.64886 c -5.74741,-2.65454 -9.30613,-8.60471 -9.30613,-15.55983 v -2.70035 h -21.84489 c -27.29787,0 -27.60382,-0.1904 -20.32701,-12.65001 4.47027,-7.65416 10.13838,-13.1493 16.58261,-16.07657 l 4.52807,-2.05687 11.61839,-0.38811 11.6184,-0.38812 -0.519,-3.5671 c -0.28545,-1.9619 -3.30656,-29.43574 -6.71357,-61.05297 l -6.19457,-57.48588 -54.37421,-0.37649 -54.37422,-0.37648 -26.93877,-4.52379 c -14.81633,-2.48808 -38.320953,-6.38025 -52.232503,-8.64926 -27.3384,-4.45897 -29.34403,-5.15327 -33.78919,-11.69697 l -2.31321,-3.40526 0.3642,-5.91922 c 0.44433,-7.22156 2.96031,-11.18368 8.93988,-14.07833 l 4.22081,-2.04326 H 144.10787 247.63533 l 0.008,-1.71429 c 0.0206,-4.38864 2.1739,-20.34203 3.99968,-29.63265 2.84452,-14.47449 9.81937,-34.92922 16.37297,-48.01602 5.87181,-11.72533 7.80542,-13.92003 10.72136,-12.16904 2.83163,1.70036 12.65185,22.55352 17.27101,36.67485 5.51632,16.86405 10.33995,41.52553 10.39442,53.14286 l 0.008,1.71429 h 103.52745 103.52749 l 4.2415,2.05327 c 5.6424,2.73145 9.1117,8.54771 9.1117,15.27568 0,5.62417 -2.5619,10.24678 -7.537,13.59952 l -3.0823,2.07714 -37.5475,6.15246 c -20.6511,3.38386 -43.9393,7.25512 -51.75154,8.6028 l -14.20409,2.45034 -54.86462,0.43463 -54.86463,0.43464 -6.19395,57.48016 c -3.40668,31.6141 -6.4275,59.08537 -6.71295,61.04727 l -0.519,3.5671 11.61839,0.38812 11.6184,0.38811 4.52807,2.05687 c 6.44423,2.92727 12.11234,8.42241 16.58261,16.07657 7.27164,12.45077 6.95362,12.65001 -20.19056,12.65001 h -21.70845 l -0.60745,5.12897 c -0.9323,7.87174 -5.90864,13.26343 -12.97475,14.05765 -2.13223,0.23966 -5.13778,-0.17149 -6.77233,-0.92644 z m 8.39093,-8.49873 c 1.43898,-0.77012 1.89478,-2.06617 1.89478,-5.38775 v -4.3737 h -4.89796 -4.89796 v 4.35949 c 0,5.70054 3.22427,7.90495 7.90114,5.40196 z m 44.99682,-19.19684 c 0,-2.15759 -4.79076,-7.64761 -8.65668,-9.92021 l -4.56781,-2.68522 h -34.77551 -34.77551 l -4.56781,2.68522 c -3.86592,2.2726 -8.65668,7.76262 -8.65668,9.92021 0,0.34048 21.6,0.61906 48,0.61906 26.4,0 48,-0.27858 48,-0.61906 z m -44.07401,-23.62583 c 0.004,-0.94286 3.5236,-33.86426 7.82092,-73.15867 4.29732,-39.29441 7.69425,-71.56344 7.54874,-71.70895 -0.14551,-0.14552 -2.6403,0.91116 -5.54396,2.34817 l -5.27939,2.61274 h -8.4723 -8.47229 l -5.27939,-2.61274 c -2.90367,-1.43701 -5.4016,-2.49054 -5.55096,-2.34118 -0.14936,0.14936 3.24781,32.41839 7.54927,71.70895 4.30145,39.29057 7.82401,72.20882 7.82791,73.15168 l 0.007,1.71428 h 3.91836 3.91837 z M 168.28839,-332.39884 v -5.87755 h -27.42857 -27.42858 v 2.83258 c 0,3.35995 -0.5739,3.1728 18.12245,5.90962 14.28287,2.09077 19.06518,2.54107 30.12245,2.83634 l 6.61225,0.17656 z m 58.77551,-10.79005 v -16.6676 l -93.63774,0.25944 -93.637743,0.25944 -1.87247,2.3126 c -2.57435,3.17948 -2.42108,8.10296 0.33162,10.65299 l 2.20408,2.0418 30.41556,4.9861 c 16.72855,2.74235 30.944883,4.9861 31.591833,4.9861 0.64696,0 1.17629,-0.89579 1.17629,-1.99065 0,-4.29557 2.80954,-8.83083 6.39993,-10.33099 l 3.53166,-1.47563 28.91174,0.28639 28.91174,0.28639 2.85716,3.19913 2.85715,3.19913 v 7.33148 7.33148 h 24.9796 24.97959 z m 22.15496,10.05536 c -0.36243,-3.63673 -0.93341,-11.13061 -1.26884,-16.65306 l -0.60988,-10.04082 h -5.24016 -5.24016 v 16.65306 16.65306 h 6.509 6.509 z m 67.96749,-10.04082 v -16.65306 h -5.24016 -5.24016 l -0.60988,10.04082 c -0.33543,5.52245 -0.90641,13.01633 -1.26884,16.65306 l -0.65896,6.61224 h 6.509 6.509 z m 59.7551,9.32158 v -7.33148 l 2.85716,-3.19913 2.85715,-3.19913 28.91174,-0.28639 28.91174,-0.28639 3.53167,1.47563 c 3.5904,1.50016 6.3999,6.03542 6.3999,10.33099 0,1.09486 0.5294,1.99065 1.1763,1.99065 0.647,0 14.8633,-2.24375 31.5918,-4.9861 l 30.4156,-4.9861 2.2041,-2.0418 c 2.7527,-2.55003 2.9059,-7.47351 0.3316,-10.65299 l -1.8725,-2.3126 -93.6377,-0.25944 -93.63774,-0.25944 v 16.6676 16.6676 h 24.97959 24.97959 z m 45.55102,4.34826 c 7.00408,-1.04874 13.94694,-2.16402 15.42857,-2.4784 l 2.69388,-0.57159 v -2.86095 -2.86094 h -27.42857 -27.42857 v 6.01633 6.01632 l 12,-0.67698 c 6.6,-0.37234 17.73061,-1.53504 24.73469,-2.58379 z m -132.29515,-19.93093 c 2.07832,-1.58606 4.5786,-4.79242 5.68177,-7.2863 l 1.97011,-4.45378 -0.66271,-9.85656 c -0.94175,-14.00672 -2.46302,-23.0067 -4.59796,-27.20205 -4.18025,-8.21456 -16.37333,-11.1968 -25.03205,-6.12245 -7.01576,4.11151 -9.10279,10.55392 -10.69574,33.01649 l -0.67715,9.54855 1.62807,4.26304 c 3.28132,8.592 8.73526,11.60935 20.26925,11.21381 l 8.40476,-0.28823 z m -19.13091,-65.79555 5.95667,-1.52603 6.02366,1.54319 c 3.31301,0.84876 6.16637,1.40048 6.34079,1.22605 1.03463,-1.03462 -10.85556,-32.04371 -12.28691,-32.04371 -0.67248,0 -7.76855,16.10155 -10.27437,23.31336 -1.68065,4.83697 -2.67492,9.01317 -2.14585,9.01317 0.23614,0 3.10984,-0.68671 6.38601,-1.52603 z"
       id="path1" />
    <path
       style="fill:#71ccff;fill-opacity:1;stroke:#6d0006;stroke-width:0"
       d="m 276.04533,-407.63823 c -7.04283,0.27808 -14.20233,4.78989 -16.25388,11.76613 -3.20717,10.05136 -3.40243,20.73228 -4.22092,31.16657 -0.76155,3.11511 0.91655,5.91827 2.06153,8.69914 2.01479,4.76586 6.0362,8.86036 11.27021,9.81551 5.69712,1.35296 11.51483,0.34657 17.2904,0.56816 4.37417,-2.57322 8.29434,-6.30582 10.46768,-10.99243 1.53156,-2.59415 2.20986,-5.57293 1.7743,-8.56814 -0.69947,-9.54629 -1.22651,-19.19069 -3.4134,-28.53739 -1.23321,-5.8982 -5.61315,-11.00796 -11.42572,-12.78 -2.42127,-0.82667 -4.99195,-1.22446 -7.5502,-1.13755 z"
       id="path3" />
    <path
       style="fill:#f9f9f9;fill-opacity:1;stroke:#6d0006;stroke-width:0"
       d="m 295.35614,-342.70659 c -5.61552,2.51805 -11.24698,5.77049 -17.64612,4.92726 -5.42067,0.49472 -10.74916,-0.62168 -15.46531,-3.35135 -1.66407,-0.95687 -5.72899,-2.81357 -5.55673,0.64041 4.86959,47.94004 10.09222,95.8518 15.35288,143.74979 0.42506,4.10211 6.16033,2.0366 8.92719,2.14448 2.12483,-2.86099 1.23259,-7.4758 2.08169,-11.02619 4.76037,-45.21588 9.76606,-90.4209 14.34396,-135.64685 10e-6,-1.07628 -1.09833,-1.62831 -2.03756,-1.43755 z"
       id="path5" />
    <path
       style="fill:#f9f9f9;fill-opacity:1;stroke:#6d0006;stroke-width:0"
       d="m 241.92676,-187.09476 c -5.25138,3.17215 -11.14316,6.8527 -13.71429,12.63919 0.464,3.47099 5.34074,1.93186 7.76816,2.46979 28.72644,0.23421 57.47234,0.51165 86.19147,-0.17936 2.47533,0.51741 4.94721,-1.90306 2.88404,-4.06594 -3.7021,-4.76947 -8.62036,-9.207 -14.34245,-11.08163 -22.91814,0.14559 -45.91898,-0.29065 -68.78693,0.21795 z"
       id="path6" />
    <path
       style="fill:#f9f9f9;fill-opacity:1;stroke:#6d0006;stroke-width:0"
       d="m 326.78292,-358.49514 c 1.12795,10.88963 -2.1318,23.59669 1.49964,33.44933 16.1918,-0.86988 33.80245,1.70258 49.136,-1.24951 0.88654,-6.4211 -2.40388,-18.76963 7.83315,-19.01473 18.70708,-1.36114 37.93943,-3.90306 56.5985,-1.51696 5.4486,1.97367 6.7871,7.73142 8.7797,12.12183 12.6113,0.97769 25.6193,-4.17808 38.3483,-5.01292 8.7071,-2.70375 20.3584,-1.03773 27.352,-7.30286 2.9497,-6.06988 0.6559,-15.49058 -8.0557,-12.09095 -59.995,-0.29616 -119.99,-0.59018 -179.98502,-0.88287 l -1.25676,1.25099 z"
       id="path7" />
    <path
       style="fill:#f9f9f9;fill-opacity:1;stroke:#6d0006;stroke-width:0"
       d="m 37.857347,-358.83108 c -3.43334,6.10347 -1.5422,15.45623 6.87135,15.21116 19.058,3.84302 38.5636,7.75232 57.807283,9.19874 3.15869,-2.97716 2.11573,-9.07431 7.18998,-11.14516 12.71761,-5.21054 27.4739,-0.66911 40.95258,-1.33468 7.73769,1.7664 20.47198,-2.03722 24.99364,6.26307 1.69943,5.98694 -3.38956,18.31328 7.20383,15.59214 14.4146,-0.87513 30.2663,1.71923 43.8119,-1.25388 -0.38965,-10.82562 2.03188,-23.69857 -1.25388,-33.66392 -62.04069,0 -124.08137,0 -186.122063,0 l -1.39918,1.08936 z"
       id="path8" />
    <path
       style="fill:#f9f9f9;fill-opacity:1;stroke:#6d0006;stroke-width:0"
       d="m 276.84798,-446.17353 c -3.43046,2.64162 -4.27672,7.57124 -6.29578,11.27583 -2.65046,6.78481 -5.91716,13.48747 -7.2532,20.68457 0.82806,3.34139 4.90258,0.42345 7.0437,0.35186 4.08897,-1.34743 8.18671,-2.09324 12.28487,-0.30043 2.52392,0.0504 6.60831,2.955 8.0498,-0.17387 -2.27772,-9.77548 -6.63176,-19.03566 -10.47306,-28.30164 -0.80514,-1.33497 -1.27688,-3.90152 -3.35633,-3.53632 z"
       id="path9" />
    <path
       style="fill:#f9f9f9;fill-opacity:1;stroke:#6d0006;stroke-width:0"
       d="m 305.85002,-360.48986 c -1.33736,10.73288 -1.47291,21.73591 -2.68961,32.5527 -0.20396,4.4859 5.99275,1.88175 8.79737,2.56322 4.48321,1.12307 7.77702,-1.05961 6.37592,-5.88857 -0.16758,-9.57786 0.33555,-19.29661 -0.25226,-28.7862 -2.88532,-2.04978 -7.54744,-0.38709 -11.12815,-0.92605 l -0.57395,0.25226 z"
       id="path10" />
    <path
       style="fill:#f9f9f9;fill-opacity:1;stroke:#6d0006;stroke-width:0"
       d="m 236.1092,-360.48986 c -0.92288,10.01139 -0.13436,20.34534 -0.39673,30.48123 -1.60262,5.43847 4.01297,4.87555 7.6298,4.63469 3.19195,0.0724 9.26096,1.0097 7.40672,-4.12927 -1.09877,-10.17206 -1.33066,-20.51033 -2.443,-30.61596 -2.95287,-1.92057 -7.51696,-0.33897 -11.09352,-0.85559 l -0.57395,0.25226 z"
       id="path11" />
    <path
       style="fill:#f9b630;fill-opacity:1;stroke:#6d0006;stroke-width:0"
       d="m 112.58696,-339.30986 c -0.97144,1.69269 -0.58072,3.9226 -0.25592,5.80102 1.16102,3.06921 5.0673,2.88806 7.73814,3.54686 14.07475,2.20637 28.2029,4.47077 42.4812,4.66299 2.1349,-0.0951 4.35087,0.51677 6.4225,-0.0468 1.318,-1.85224 0.30025,-4.40058 0.61959,-6.54367 -0.18889,-2.39765 0.40676,-4.93323 -0.34898,-7.23123 -2.10968,-1.16469 -4.76977,-0.24587 -7.10694,-0.53816 -16.19592,0 -32.39184,0 -48.58776,0 -0.32061,0.11633 -0.64122,0.23265 -0.96183,0.34898 z"
       id="path12" />
    <path
       style="fill:#f9b630;fill-opacity:1;stroke:#6d0006;stroke-width:0"
       d="m 384.99186,-339.30986 c -1.16104,2.0734 -0.2485,4.69485 -0.53816,6.99551 0.18189,2.25725 -0.39528,4.64795 0.34898,6.80633 1.90573,1.16484 4.34139,0.1045 6.47314,0.29421 16.60726,-0.80608 33.1274,-2.95576 49.48053,-5.92013 2.20576,-0.99497 0.88186,-3.92854 1.24106,-5.81816 0.5838,-2.19742 -1.53584,-3.17299 -3.38086,-2.70674 -17.55428,0 -35.10857,0 -52.66285,0 -0.32062,0.11633 -0.64123,0.23265 -0.96184,0.34898 z"
       id="path13" />
    <path
       style="fill:#f9b630;fill-opacity:1;stroke:#6d0006;stroke-width:0"
       d="m 271.45196,-165.16322 c -1.26821,0.98963 -0.53011,2.77685 -0.6811,4.1455 0.0508,2.49258 -0.12752,5.31269 1.68396,7.29766 1.15339,1.60704 3.22527,2.28857 5.13398,1.87775 2.09777,-0.40125 4.44572,-1.36647 5.2151,-3.54398 0.7502,-1.97623 0.32912,-4.16436 0.49565,-6.2279 -0.0965,-1.19716 0.48379,-2.94827 -0.86806,-3.59514 -2.07659,-0.35703 -4.23844,-0.0669 -6.34973,-0.16053 -1.53332,0.0969 -3.14385,-0.2181 -4.6298,0.20664 z"
       id="path14" />
    <circle
       style="fill:#ffffff;fill-opacity:1;stroke:#000000;stroke-width:7.55906;stroke-dasharray:none;stroke-opacity:0.815686"
       id="path15"
       cx="275.22614"
       cy="-518.47839"
       r="53.289791" />
    <text
       xml:space="preserve"
       id="text15"
       style="font-weight:bold;font-size:70px;font-family:Sans;fill:#000000;fill-opacity:1"
       x="275.22614"
       y="-503"
       text-anchor="middle"
       dominant-baseline="central">#PP</text>
  </g>
</svg>
